<svg viewBox="0 0 680 680" width="100%" xmlns="http://www.w3.org/2000/svg" role="img">
  <title>DYA_AI — Did You Ask AI?</title>
  <desc>AI education, tool breakdowns, weekly news — Hong Kong AI Master student</desc>

  <defs>
    <marker id="arr" viewBox="0 0 10 10" refX="8" refY="5" markerWidth="6" markerHeight="6" orient="auto-start-reverse">
      <path d="M2 1L8 5L2 9" fill="none" stroke="context-stroke" stroke-width="1.5" stroke-linecap="round" stroke-linejoin="round"/>
    </marker>
  </defs>

  <rect width="680" height="680" fill="#030712"/>

  <g opacity="0.06">
    <pattern id="g" width="30" height="30" patternUnits="userSpaceOnUse">
      <path d="M30 0L0 0L0 30" fill="none" stroke="#818cf8" stroke-width="0.4"/>
      <circle cx="15" cy="15" r="1" fill="#818cf8"/>
    </pattern>
    <rect width="680" height="680" fill="url(#g)"/>
  </g>

  <circle cx="340" cy="215" r="230" fill="none" stroke="#4f46e5" stroke-width="0.6" opacity="0.18"/>
  <circle cx="340" cy="215" r="195" fill="none" stroke="#06b6d4" stroke-width="0.6" opacity="0.13"/>
  <circle cx="340" cy="215" r="155" fill="none" stroke="#818cf8" stroke-width="0.8" opacity="0.15"/>

  <g transform="translate(340,200)">
    <circle cx="0" cy="0" r="120" fill="none" stroke="#4f46e5" stroke-width="0.8" stroke-dasharray="6 8" opacity="0.4"/>
    <circle cx="0" cy="0" r="100" fill="none" stroke="#38bdf8" stroke-width="0.6" opacity="0.25"/>

    <g transform="rotate(30)" opacity="0.4">
      <polygon points="0,-95 82,-47 82,47 0,95 -82,47 -82,-47" fill="none" stroke="#818cf8" stroke-width="0.8"/>
      <circle cx="0" cy="-95" r="3.5" fill="#818cf8"/>
      <circle cx="82" cy="-47" r="3.5" fill="#38bdf8"/>
      <circle cx="82" cy="47" r="3.5" fill="#38bdf8"/>
      <circle cx="0" cy="95" r="3.5" fill="#818cf8"/>
      <circle cx="-82" cy="47" r="3.5" fill="#818cf8"/>
      <circle cx="-82" cy="-47" r="3.5" fill="#38bdf8"/>
    </g>

    <polygon points="0,-72 62,-36 62,36 0,72 -62,36 -62,-36" fill="#0f0a2e" stroke="#a78bfa" stroke-width="1.8"/>
    <polygon points="0,-72 62,-36 62,36 0,72 -62,36 -62,-36" fill="#4c1d95" opacity="0.2"/>

    <polygon points="0,-44 38,-22 38,22 0,44 -38,22 -38,-22" fill="none" stroke="#7c3aed" stroke-width="0.6" opacity="0.4"/>

    <line x1="0" y1="-28" x2="0" y2="28" stroke="#c4b5fd" stroke-width="4.5" stroke-linecap="round"/>
    <line x1="0" y1="-28" x2="24" y2="-16" stroke="#38bdf8" stroke-width="2.5" stroke-linecap="round"/>
    <line x1="0" y1="28" x2="24" y2="16" stroke="#38bdf8" stroke-width="2.5" stroke-linecap="round"/>
    <line x1="0" y1="-28" x2="-24" y2="-16" stroke="#06b6d4" stroke-width="2.5" stroke-linecap="round"/>

    <circle cx="0" cy="-72" r="7" fill="#a78bfa"/>
    <circle cx="62" cy="-36" r="7" fill="#818cf8"/>
    <circle cx="62" cy="36" r="7" fill="#06b6d4"/>
    <circle cx="0" cy="72" r="7" fill="#38bdf8"/>
    <circle cx="-62" cy="36" r="7" fill="#06b6d4"/>
    <circle cx="-62" cy="-36" r="7" fill="#818cf8"/>

    <circle cx="0" cy="0" r="5" fill="#c4b5fd"/>

    <line x1="-85" y1="-10" x2="-68" y2="-10" stroke="#4f46e5" stroke-width="0.6" opacity="0.3"/>
    <line x1="68" y1="-10" x2="85" y2="-10" stroke="#4f46e5" stroke-width="0.6" opacity="0.3"/>
    <line x1="-85" y1="10" x2="-68" y2="10" stroke="#4f46e5" stroke-width="0.6" opacity="0.3"/>
    <line x1="68" y1="10" x2="85" y2="10" stroke="#4f46e5" stroke-width="0.6" opacity="0.3"/>

    <circle cx="-85" cy="-10" r="2" fill="#818cf8" opacity="0.5"/>
    <circle cx="85" cy="-10" r="2" fill="#818cf8" opacity="0.5"/>
    <circle cx="-85" cy="10" r="2" fill="#818cf8" opacity="0.5"/>
    <circle cx="85" cy="10" r="2" fill="#818cf8" opacity="0.5"/>
  </g>

  <text x="340" y="335" text-anchor="middle" font-family="'Segoe UI','Arial Black',sans-serif" font-size="88" font-weight="900" fill="#DDD6FE" letter-spacing="2">DYA</text>

  <text x="340" y="378" text-anchor="middle" font-family="'Segoe UI','Arial',sans-serif" font-size="28" font-weight="700" fill="#2DD4BF" letter-spacing="4">_AI</text>

  <text x="340" y="424" text-anchor="middle" font-family="'Segoe UI','Arial',sans-serif" font-size="14" font-weight="500" fill="#64748B" letter-spacing="5">DID YOU ASK AI?</text>

  <line x1="200" y1="448" x2="480" y2="448" stroke="#4f46e5" stroke-width="0.6" opacity="0.35"/>

  <g>
    <rect x="58" y="472" width="170" height="112" rx="12" fill="#0f0a2e" stroke="#818cf8" stroke-width="1.2"/>
    <rect x="58" y="472" width="170" height="4" rx="2" fill="#818cf8"/>
    <circle cx="143" cy="505" r="18" fill="#312e81"/>
    <text x="143" y="512" text-anchor="middle" font-family="'Segoe UI',sans-serif" font-size="17" fill="#C7D2FE">📖</text>
    <text x="143" y="542" text-anchor="middle" font-family="'Segoe UI','Arial',sans-serif" font-size="14" font-weight="700" fill="#E0E7FF">教人用 AI</text>
    <text x="143" y="564" text-anchor="middle" font-family="'Segoe UI','Arial',sans-serif" font-size="11" fill="#94A3B8">實用教學指南</text>

    <rect x="255" y="472" width="170" height="112" rx="12" fill="#0f0a2e" stroke="#06b6d4" stroke-width="1.2"/>
    <rect x="255" y="472" width="170" height="4" rx="2" fill="#06b6d4"/>
    <circle cx="340" cy="505" r="18" fill="#155e75"/>
    <text x="340" y="512" text-anchor="middle" font-family="'Segoe UI',sans-serif" font-size="17" fill="#67e8f9">🔧</text>
    <text x="340" y="542" text-anchor="middle" font-family="'Segoe UI','Arial',sans-serif" font-size="14" font-weight="700" fill="#CFFAFE">拆解 AI 工具</text>
    <text x="340" y="564" text-anchor="middle" font-family="'Segoe UI','Arial',sans-serif" font-size="11" fill="#94A3B8">深入評測分析</text>

    <rect x="452" y="472" width="170" height="112" rx="12" fill="#0f0a2e" stroke="#a78bfa" stroke-width="1.2"/>
    <rect x="452" y="472" width="170" height="4" rx="2" fill="#a78bfa"/>
    <circle cx="537" cy="505" r="18" fill="#4c1d95"/>
    <text x="537" y="512" text-anchor="middle" font-family="'Segoe UI',sans-serif" font-size="17" fill="#DDD6FE">📡</text>
    <text x="537" y="542" text-anchor="middle" font-family="'Segoe UI','Arial',sans-serif" font-size="14" font-weight="700" fill="#EDE9FE">分享 AI 資訊</text>
    <text x="537" y="564" text-anchor="middle" font-family="'Segoe UI','Arial',sans-serif" font-size="11" fill="#94A3B8">每週行業動態</text>
  </g>

  <text x="340" y="624" text-anchor="middle" font-family="'Segoe UI','Arial',sans-serif" font-size="18" font-weight="700" fill="#2DD4BF" letter-spacing="3">@dya_ai</text>
  <text x="340" y="652" text-anchor="middle" font-family="'Segoe UI','Arial',sans-serif" font-size="12" fill="#475569">香港 AI Master 在讀 · 現職 AI 從業者</text>
</svg>