<svg viewBox="0 0 680 680" width="100%" xmlns="http://www.w3.org/2000/svg" role="img">
  <title>DYA_AI Instagram First Post</title>
  <desc>DidYouAskAI brand launch — AI education, tool breakdowns, weekly news</desc>

  <defs>
    <marker id="arrow" viewBox="0 0 10 10" refX="8" refY="5" markerWidth="6" markerHeight="6" orient="auto-start-reverse">
      <path d="M2 1L8 5L2 9" fill="none" stroke="context-stroke" stroke-width="1.5" stroke-linecap="round" stroke-linejoin="round"/>
    </marker>
  </defs>

  <rect width="680" height="680" fill="#080d24"/>

  <g opacity="0.04">
    <pattern id="grid" width="40" height="40" patternUnits="userSpaceOnUse">
      <path d="M40 0L0 0L0 40" fill="none" stroke="#a78bfa" stroke-width="0.5"/>
    </pattern>
    <rect width="680" height="680" fill="url(#grid)"/>
  </g>

  <circle cx="340" cy="240" r="220" fill="none" stroke="#7c3aed" stroke-width="0.5" opacity="0.12"/>
  <circle cx="340" cy="240" r="180" fill="none" stroke="#06b6d4" stroke-width="0.5" opacity="0.08"/>

  <g transform="translate(340,200)">
    <circle cx="0" cy="0" r="105" fill="none" stroke="#7c3aed" stroke-width="1" stroke-dasharray="8 5" opacity="0.2"/>
    <circle cx="0" cy="0" r="78" fill="none" stroke="#a78bfa" stroke-width="0.8" opacity="0.15"/>

    <polygon points="0,-68 59,-34 59,34 0,68 -59,34 -59,-34" fill="#1a1050" stroke="#7c3aed" stroke-width="1.5"/>
    <polygon points="0,-68 59,-34 59,34 0,68 -59,34 -59,-34" fill="#4c1d95" opacity="0.25"/>

    <line x1="0" y1="-26" x2="0" y2="26" stroke="#a78bfa" stroke-width="3.5" stroke-linecap="round"/>
    <line x1="0" y1="-26" x2="20" y2="-14" stroke="#38bdf8" stroke-width="2" stroke-linecap="round"/>
    <line x1="0" y1="26" x2="20" y2="14" stroke="#38bdf8" stroke-width="2" stroke-linecap="round"/>

    <circle cx="0" cy="-68" r="6" fill="#a78bfa"/>
    <circle cx="59" cy="-34" r="6" fill="#7c3aed"/>
    <circle cx="59" cy="34" r="6" fill="#06b6d4"/>
    <circle cx="0" cy="68" r="6" fill="#38bdf8"/>
    <circle cx="-59" cy="34" r="6" fill="#7c3aed"/>
    <circle cx="-59" cy="-34" r="6" fill="#a78bfa"/>
  </g>

  <text x="340" y="330" text-anchor="middle" font-family="'Segoe UI','Arial Black',sans-serif" font-size="82" font-weight="900" fill="#c4b5fd" letter-spacing="4">DYA</text>

  <text x="340" y="372" text-anchor="middle" font-family="'Segoe UI','Arial',sans-serif" font-size="26" font-weight="600" fill="#5eead4" letter-spacing="5">_AI</text>

  <text x="340" y="416" text-anchor="middle" font-family="'Segoe UI','Arial',sans-serif" font-size="15" fill="#64748b" letter-spacing="4">DID YOU ASK AI?</text>

  <line x1="180" y1="440" x2="500" y2="440" stroke="#7c3aed" stroke-width="0.5" opacity="0.3"/>

  <g>
    <rect x="68" y="470" width="160" height="104" rx="10" fill="#0f1832" stroke="#7c3aed" stroke-width="0.8" opacity="0.9"/>
    <circle cx="148" cy="500" r="16" fill="#4c1d95"/>
    <text x="148" y="506" text-anchor="middle" font-family="'Segoe UI',sans-serif" font-size="15" fill="#c4b5fd">📖</text>
    <text x="148" y="535" text-anchor="middle" font-family="'Segoe UI','Arial',sans-serif" font-size="13" font-weight="600" fill="#e2e8f0">教人用 AI</text>
    <text x="148" y="556" text-anchor="middle" font-family="'Segoe UI','Arial',sans-serif" font-size="11" fill="#94a3b8">實用教學指南</text>

    <rect x="260" y="470" width="160" height="104" rx="10" fill="#0f1832" stroke="#06b6d4" stroke-width="0.8" opacity="0.9"/>
    <circle cx="340" cy="500" r="16" fill="#155e75"/>
    <text x="340" y="506" text-anchor="middle" font-family="'Segoe UI',sans-serif" font-size="15" fill="#5eead4">🔧</text>
    <text x="340" y="535" text-anchor="middle" font-family="'Segoe UI','Arial',sans-serif" font-size="13" font-weight="600" fill="#e2e8f0">拆解 AI 工具</text>
    <text x="340" y="556" text-anchor="middle" font-family="'Segoe UI','Arial',sans-serif" font-size="11" fill="#94a3b8">深入評測分析</text>

    <rect x="452" y="470" width="160" height="104" rx="10" fill="#0f1832" stroke="#a78bfa" stroke-width="0.8" opacity="0.9"/>
    <circle cx="532" cy="500" r="16" fill="#4c1d95"/>
    <text x="532" y="506" text-anchor="middle" font-family="'Segoe UI',sans-serif" font-size="15" fill="#c4b5fd">📡</text>
    <text x="532" y="535" text-anchor="middle" font-family="'Segoe UI','Arial',sans-serif" font-size="13" font-weight="600" fill="#e2e8f0">分享 AI 資訊</text>
    <text x="532" y="556" text-anchor="middle" font-family="'Segoe UI','Arial',sans-serif" font-size="11" fill="#94a3b8">每週行業動態</text>
  </g>

  <text x="340" y="618" text-anchor="middle" font-family="'Segoe UI','Arial',sans-serif" font-size="16" font-weight="600" fill="#5eead4" letter-spacing="2">@dya_ai</text>
  <text x="340" y="644" text-anchor="middle" font-family="'Segoe UI','Arial',sans-serif" font-size="11" fill="#475569">香港 AI Master 在讀 · 現職 AI 從業者</text>
</svg>